<svg width="24" height="24" viewBox="0 0 24 24" fill="none" xmlns="http://www.w3.org/2000/svg">
<path d="M7.14999 16.85H14.15V14.85H7.14999V16.85ZM7.14999 13H16.85V11H7.14999V13ZM7.14999 9.15H16.85V7.15H7.14999V9.15ZM5.29999 21.85C4.41666 21.85 3.67083 21.5458 3.06249 20.9375C2.45416 20.3292 2.14999 19.5833 2.14999 18.7V5.3C2.14999 4.41667 2.45416 3.67083 3.06249 3.0625C3.67083 2.45417 4.41666 2.15 5.29999 2.15H18.7C19.5833 2.15 20.3292 2.45417 20.9375 3.0625C21.5458 3.67083 21.85 4.41667 21.85 5.3V18.7C21.85 19.5833 21.5458 20.3292 20.9375 20.9375C20.3292 21.5458 19.5833 21.85 18.7 21.85H5.29999Z" fill="white"/>
</svg>
