<svg width="500" height="500" viewBox="0 0 500 500" fill="none" xmlns="http://www.w3.org/2000/svg">
<g clip-path="url(#clip0_1_2)">
<circle cx="250" cy="248" r="218" fill="#111324"/>
<path d="M229.754 116.776C221.682 118.825 214.956 120.683 214.764 120.875C214.572 121.067 219.44 130.42 225.526 141.758L236.608 162.256H249.931H263.255L273.632 141.565C279.397 130.227 284.138 120.747 284.266 120.555C284.522 120.042 265.433 115.11 258.515 113.893C249.227 112.292 245.96 112.612 229.754 116.776Z" fill="white"/>
<path d="M283.113 145.537L271.647 168.469L279.974 220.227C284.522 248.668 288.237 273.202 288.237 274.739C288.237 278.391 286.059 284.156 283.497 287.038C282.408 288.255 276.067 294.149 269.405 300.106C259.284 309.074 256.721 311.06 254.095 311.828C250.059 313.045 248.906 313.045 244.807 311.828C241.796 310.931 240.003 309.458 229.049 298.953C215.597 286.141 213.163 282.746 212.33 276.533C211.946 273.971 213.611 261.928 220.081 220.804L228.216 168.341L216.814 147.202C210.536 135.544 205.092 125.487 204.579 124.719C203.811 123.373 203.618 123.437 174.729 130.676C141.547 139.003 138.729 140.028 133.028 146.242C128.864 150.726 126.494 155.338 125.533 161.039C125.021 164.049 124.893 178.206 125.085 209.402C125.341 256.932 125.405 257.636 129.056 274.099C140.266 323.871 176.33 367.878 226.807 393.18C237.184 398.433 241.284 399.522 250.444 399.522C257.49 399.522 259.027 399.33 263.447 397.792C272.159 394.782 284.65 387.992 297.654 379.28C336.088 353.593 363.504 314.006 372.344 271.473C375.547 256.099 375.675 253.985 375.675 205.814V160.654L374.137 156.491C371.319 148.868 366.13 143.039 359.148 139.836C356.842 138.747 342.557 134.775 324.878 130.291L294.579 122.669L283.113 145.537Z" fill="white"/>
<path d="M237.953 173.274C237.825 173.722 234.173 196.526 229.946 224.007C224.821 256.739 222.259 274.675 222.515 276.213C222.899 278.134 224.821 280.312 234.878 290.241C241.476 296.647 247.561 302.092 248.394 302.348C249.227 302.54 250.508 302.412 251.277 302.028C253.775 300.875 275.682 280.889 276.899 278.711C277.476 277.558 277.988 275.764 277.988 274.803C277.988 273.202 263.255 179.103 262.23 174.234L261.846 172.505H250.059C241.156 172.505 238.145 172.697 237.953 173.274Z" fill="white"/>
</g>
<defs>
<clipPath id="clip0_1_2">
<rect width="500" height="500" fill="white"/>
</clipPath>
</defs>
</svg>
