<svg width="1420" height="719" viewBox="0 0 1420 719" fill="none" xmlns="http://www.w3.org/2000/svg">
<path d="M292.261 276.049L265.867 292.202C232.316 311.867 196.655 321.699 158.882 321.699C134.012 321.699 111.489 315.612 91.312 303.439C71.1349 291.266 55.2982 274.644 43.8021 253.575C32.3059 232.505 26.5577 209.212 26.5577 183.695C26.5577 157.007 32.8924 133.362 45.5617 112.761C58.231 91.9257 75.2408 75.7725 96.5909 64.3015C118.176 52.8305 141.755 47.0948 167.328 47.0948C185.863 47.0948 202.52 50.2553 217.301 56.5761C232.316 62.6628 247.097 71.3246 261.644 82.5616C261.878 82.7957 262.348 82.9128 263.052 82.9128C264.225 82.9128 265.633 82.4445 267.275 81.5082C269.152 80.3376 270.56 79.2841 271.498 78.3478L276.073 83.2639L229.267 129.617L224.34 125.052C225.747 123.647 226.803 122.125 227.507 120.487C228.445 118.614 228.445 117.209 227.507 116.273C208.503 99.6512 188.561 91.3405 167.68 91.3405C151.257 91.3405 136.007 95.0861 121.93 102.578C107.853 110.069 96.5909 120.838 88.1447 134.884C79.933 148.696 75.8273 164.966 75.8273 183.695C75.8273 200.784 79.3465 216.352 86.3851 230.398C93.4236 244.211 103.277 255.213 115.947 263.407C128.616 271.601 143.045 275.698 159.234 275.698C186.684 275.698 210.615 269.259 231.026 256.384V205.115H167.328C166.155 205.115 165.216 205.935 164.512 207.573C163.809 209.212 163.457 210.851 163.457 212.489H156.77V156.304H163.457C163.457 157.943 163.809 159.582 164.512 161.221C165.216 162.859 166.155 163.679 167.328 163.679H284.167V170.351C282.525 170.351 280.766 170.702 278.888 171.404C277.247 172.106 276.425 173.043 276.425 174.213V271.835C276.425 273.006 277.363 273.591 279.24 273.591C282.056 273.591 285.223 272.537 288.742 270.43L292.261 276.049ZM423.772 146.121V202.657H417.085C417.085 201.018 416.733 199.146 416.029 197.039C415.326 194.932 414.388 193.761 413.214 193.527H410.751C403.478 193.527 396.088 195.634 388.579 199.848C381.307 203.828 375.206 209.212 370.279 216.001C365.586 222.556 363.241 229.579 363.241 237.07V307.653C363.241 308.824 364.062 309.76 365.704 310.462C367.582 311.164 369.341 311.516 370.983 311.516V318.187H311.859V311.516C313.501 311.516 315.145 311.164 316.786 310.462C318.664 309.76 319.602 308.824 319.602 307.653V167.19C319.602 166.02 318.664 165.083 316.786 164.381C315.145 163.679 313.501 163.328 311.859 163.328V156.656H363.241V171.755C369.575 165.903 377.2 161.221 386.116 157.709C395.032 154.198 403.946 152.442 412.862 152.442H413.214H413.566C414.74 152.442 415.559 151.739 416.029 150.335C416.733 148.93 417.085 147.526 417.085 146.121H423.772ZM635.68 163.328C634.037 163.328 632.277 163.679 630.402 164.381C628.758 165.083 627.938 166.02 627.938 167.19V307.653C627.938 308.824 628.758 309.76 630.402 310.462C632.277 311.164 634.037 311.516 635.68 311.516V318.187H583.596V298.874C568.815 314.794 550.163 322.753 527.639 322.753C510.511 322.753 495.378 319.359 482.241 312.569C469.336 305.546 459.248 295.596 451.975 282.721C444.937 269.846 441.418 254.862 441.418 237.773C441.418 221.151 445.289 206.403 453.031 193.527C461.008 180.417 471.565 170.351 484.705 163.328C497.842 156.07 512.155 152.442 527.639 152.442C550.163 152.442 568.815 161.104 583.596 178.427V156.656H635.68V163.328ZM532.918 285.53C542.536 285.53 551.1 283.423 558.609 279.209C566.351 274.762 572.334 269.026 576.557 262.002C580.78 254.746 582.892 247.02 582.892 238.826C582.892 224.78 578.199 213.192 568.815 204.062C559.665 194.932 547.699 190.367 532.918 190.367C518.605 190.367 506.758 194.815 497.374 203.711C488.224 212.607 483.649 223.96 483.649 237.773C483.649 252.288 488.34 263.876 497.726 272.537C507.344 281.198 519.075 285.53 532.918 285.53ZM762.307 149.632V203.008H755.621C755.621 201.37 755.269 199.848 754.565 198.443C753.861 196.805 752.923 195.985 751.75 195.985H728.875V307.653C728.875 308.824 729.696 309.76 731.338 310.462C732.98 311.164 734.623 311.516 736.265 311.516V318.187H678.901V311.516C680.543 311.516 682.186 311.164 683.828 310.462C685.47 309.76 686.292 308.824 686.292 307.653V195.985H669.399C668.225 195.985 667.288 196.805 666.584 198.443C665.88 199.848 665.528 201.37 665.528 203.008H658.841V149.632H665.528C665.528 151.271 665.88 152.91 666.584 154.549C667.288 155.953 668.225 156.656 669.399 156.656H686.292V115.57C686.292 114.4 685.47 113.463 683.828 112.761C682.186 112.059 680.543 111.708 678.901 111.708V105.036H736.265V111.708C734.623 111.708 732.98 112.059 731.338 112.761C729.696 113.463 728.875 114.4 728.875 115.57V156.656H751.75C752.923 156.656 753.861 155.953 754.565 154.549C755.269 152.91 755.621 151.271 755.621 149.632H762.307ZM943.895 307.653C943.895 308.824 944.717 309.76 946.358 310.462C948.236 311.164 949.995 311.516 951.637 311.516V318.187H907.998V305.195C895.565 315.963 881.136 321.348 864.712 321.348C840.077 321.348 822.013 314.325 810.515 300.279C799.019 285.999 793.271 268.206 793.271 246.903V167.19C793.271 166.02 792.333 165.083 790.455 164.381C788.814 163.679 787.172 163.328 785.528 163.328V156.656H845.356V163.328C843.714 163.328 841.954 163.679 840.077 164.381C838.435 165.083 837.613 166.02 837.613 167.19V244.094C837.613 254.159 840.195 262.705 845.356 269.728C850.519 276.518 858.495 279.911 869.287 279.911C879.61 279.911 887.353 276.751 892.514 270.43C897.677 264.109 900.256 256.033 900.256 246.2V167.19C900.256 166.02 899.318 165.083 897.441 164.381C895.799 163.679 894.157 163.328 892.514 163.328V156.656H951.637V163.328C949.995 163.328 948.236 163.679 946.358 164.381C944.717 165.083 943.895 166.02 943.895 167.19V307.653ZM1019.72 127.158C1012.21 127.158 1005.76 124.583 1000.36 119.433C995.201 114.283 992.62 107.845 992.62 100.119C992.62 92.8623 995.201 86.6584 1000.36 81.5082C1005.76 76.1237 1012.21 73.4316 1019.72 73.4316C1027.23 73.4316 1033.56 76.1237 1038.72 81.5082C1043.89 86.6584 1046.46 92.8623 1046.46 100.119C1046.46 107.845 1043.89 114.283 1038.72 119.433C1033.56 124.583 1027.23 127.158 1019.72 127.158ZM996.843 167.19C996.843 166.02 995.905 165.083 994.028 164.381C992.386 163.679 990.744 163.328 989.101 163.328V156.656H1049.63V163.328C1047.99 163.328 1046.23 163.679 1044.35 164.381C1042.71 165.083 1041.89 166.02 1041.89 167.19V307.653C1041.89 308.824 1042.71 309.76 1044.35 310.462C1046.23 311.164 1047.99 311.516 1049.63 311.516V318.187H989.101V311.516C990.744 311.516 992.386 311.164 994.028 310.462C995.905 309.76 996.843 308.824 996.843 307.653V167.19ZM1181.25 149.632V203.008H1174.56C1174.56 201.37 1174.21 199.848 1173.51 198.443C1172.8 196.805 1171.87 195.985 1170.69 195.985H1147.82V307.653C1147.82 308.824 1148.64 309.76 1150.28 310.462C1151.92 311.164 1153.57 311.516 1155.21 311.516V318.187H1097.84V311.516C1099.49 311.516 1101.13 311.164 1102.77 310.462C1104.41 309.76 1105.23 308.824 1105.23 307.653V195.985H1088.34C1087.17 195.985 1086.23 196.805 1085.53 198.443C1084.82 199.848 1084.47 201.37 1084.47 203.008H1077.78V149.632H1084.47C1084.47 151.271 1084.82 152.91 1085.53 154.549C1086.23 155.953 1087.17 156.656 1088.34 156.656H1105.23V115.57C1105.23 114.4 1104.41 113.463 1102.77 112.761C1101.13 112.059 1099.49 111.708 1097.84 111.708V105.036H1155.21V111.708C1153.57 111.708 1151.92 112.059 1150.28 112.761C1148.64 113.463 1147.82 114.4 1147.82 115.57V156.656H1170.69C1171.87 156.656 1172.8 155.953 1173.51 154.549C1174.21 152.91 1174.56 151.271 1174.56 149.632H1181.25ZM1396.62 163.328C1391.69 163.328 1388.65 164.264 1387.47 166.137L1264.3 408.083C1264.06 408.317 1263.95 408.668 1263.95 409.137C1263.95 410.542 1264.77 411.713 1266.41 412.649C1268.05 413.584 1270.16 414.053 1272.74 414.053V420.725H1206.58V414.053C1211.51 414.053 1214.56 413.117 1215.73 411.244L1273.1 298.523L1200.95 165.786C1200.01 164.147 1196.96 163.328 1191.8 163.328V156.656H1256.91V163.328C1254.09 163.328 1252.33 163.913 1251.63 165.083C1251.16 166.254 1251.39 167.541 1252.33 168.946L1297.03 251.468L1338.91 169.297C1339.14 169.063 1339.26 168.712 1339.26 168.244C1339.26 166.839 1338.44 165.669 1336.79 164.732C1335.15 163.796 1333.04 163.328 1330.46 163.328V156.656H1396.62V163.328ZM98.4747 483.438C117.023 483.438 133.17 487.238 146.916 494.84C160.662 502.276 171.261 513.1 178.714 527.311C186.332 541.523 190.141 558.378 190.141 577.878C190.141 596.551 186.083 612.828 177.968 626.709C170.019 640.425 158.84 651.001 144.432 658.437C130.189 665.708 113.877 669.344 95.4937 669.344H28.4209V664.634C29.5802 664.634 30.7394 664.386 31.8987 663.891C33.2236 663.395 33.8861 662.734 33.8861 661.907V490.874C33.8861 490.047 33.2236 489.386 31.8987 488.891C30.7394 488.395 29.5802 488.147 28.4209 488.147V483.438H98.4747ZM90.7738 640.094C105.182 640.094 117.437 637.533 127.54 632.41C137.808 627.122 145.509 619.769 150.642 610.349C155.942 600.93 158.592 589.941 158.592 577.382C158.592 557.717 153.292 542.019 142.693 530.286C132.094 518.553 115.781 512.687 93.7548 512.687H66.4288V640.094H90.7738ZM268.502 672.318C256.247 672.318 245.399 669.757 235.96 664.634C226.685 659.346 219.399 652.158 214.1 643.069C208.966 633.98 206.399 623.735 206.399 612.332C206.399 601.095 208.966 590.85 214.1 581.596C219.399 572.342 226.768 565.071 236.208 559.783C245.648 554.33 256.413 551.603 268.502 551.603C280.095 551.603 290.611 554.247 300.051 559.535C309.491 564.658 316.944 571.846 322.409 581.1C327.874 590.189 330.607 600.6 330.607 612.332C330.607 622.578 328.123 632.328 323.154 641.582C318.351 650.67 311.23 658.107 301.79 663.891C292.35 669.509 281.254 672.318 268.502 672.318ZM268.502 643.813C278.273 643.813 286.14 641.003 292.102 635.385C298.23 629.601 301.293 622.165 301.293 613.076C301.293 603.657 298.23 595.89 292.102 589.776C286.14 583.662 278.273 580.604 268.502 580.604C259.394 580.604 251.775 583.662 245.648 589.776C239.52 595.725 236.456 603.244 236.456 612.332C236.456 621.917 239.52 629.601 245.648 635.385C251.775 641.003 259.394 643.813 268.502 643.813ZM407.447 674.549C396.847 674.549 386.993 671.905 377.885 666.617C368.776 661.329 361.489 654.141 356.024 645.052C350.724 635.963 348.075 626.048 348.075 615.307C348.075 602.583 350.724 591.428 356.024 581.844C361.489 572.094 368.776 564.658 377.885 559.535C386.993 554.247 397.013 551.603 407.943 551.603C415.727 551.603 422.352 552.512 427.817 554.33C433.448 556.147 437.919 558.378 441.231 561.022C444.709 563.501 449.015 567.054 454.149 571.681C454.48 572.011 454.894 572.177 455.391 572.177C456.054 572.177 456.799 571.929 457.627 571.433C458.621 570.937 459.366 570.442 459.863 569.946L463.092 573.416L436.263 598.204L433.034 594.733C433.862 594.072 434.524 593.164 435.021 592.007C435.683 590.685 435.766 589.693 435.269 589.032C429.307 581.761 421.11 578.126 410.676 578.126C401.236 578.126 393.287 581.266 386.828 587.545C380.535 593.825 377.388 602.004 377.388 612.085C377.388 622.495 380.452 630.841 386.579 637.12C392.707 643.399 400.739 646.539 410.676 646.539C415.644 646.539 419.702 645.961 422.848 644.804C425.995 643.482 429.556 641.086 433.53 637.616C433.862 637.285 434.027 636.872 434.027 636.376C434.027 635.385 433.448 634.311 432.288 633.154L435.269 629.436L462.099 651.745L459.117 655.215C456.468 653.728 454.646 653.48 453.652 654.471C447.525 661.247 441.066 666.287 434.276 669.592C427.651 672.897 418.708 674.549 407.447 674.549ZM651.633 563.253C657.098 564.906 662.563 568.128 668.029 572.92C673.659 577.547 678.297 583.496 681.94 590.767C685.749 598.038 687.654 606.136 687.654 615.059C687.654 624.644 685.335 633.567 680.698 641.83C676.061 650.092 669.188 656.785 660.079 661.907C650.971 666.865 640.123 669.344 627.537 669.344H548.788V664.634C549.947 664.634 551.107 664.386 552.266 663.891C553.591 663.395 554.253 662.734 554.253 661.907V490.874C554.253 490.047 553.591 489.386 552.266 488.891C551.107 488.395 549.947 488.147 548.788 488.147V483.438H606.173C617.269 483.438 627.04 485.586 635.486 489.882C644.098 494.013 650.722 499.88 655.359 507.481C660.162 514.918 662.563 523.428 662.563 533.012C662.563 545.406 658.92 555.486 651.633 563.253ZM586.548 512.687V556.561H602.198C612.466 556.561 619.504 554.578 623.313 550.612C627.288 546.48 629.276 540.779 629.276 533.508C629.276 527.724 626.708 522.85 621.575 518.884C616.606 514.752 610.147 512.687 602.198 512.687H586.548ZM620.332 640.094C632.919 640.094 641.862 637.533 647.162 632.41C652.627 627.288 655.359 621.173 655.359 614.068C655.359 606.631 653.041 600.104 648.404 594.485C643.767 588.702 635.817 585.81 624.556 585.81H586.548V640.094H620.332ZM820.909 661.907C820.909 662.734 821.489 663.395 822.648 663.891C823.973 664.386 825.215 664.634 826.374 664.634V669.344H795.571V660.172C786.793 667.774 776.608 671.575 765.015 671.575C747.626 671.575 734.874 666.617 726.759 656.702C718.644 646.622 714.586 634.063 714.586 619.025V562.758C714.586 561.931 713.924 561.27 712.599 560.774C711.44 560.279 710.28 560.031 709.121 560.031V555.321H751.352V560.031C750.193 560.031 748.951 560.279 747.626 560.774C746.467 561.27 745.887 561.931 745.887 562.758V617.042C745.887 624.148 747.709 630.18 751.352 635.137C754.996 639.929 760.626 642.325 768.245 642.325C775.532 642.325 780.997 640.094 784.64 635.633C788.284 631.171 790.105 625.47 790.105 618.529V562.758C790.105 561.931 789.443 561.27 788.118 560.774C786.959 560.279 785.799 560.031 784.64 560.031V555.321H826.374V560.031C825.215 560.031 823.973 560.279 822.648 560.774C821.489 561.27 820.909 561.931 820.909 562.758V661.907ZM874.431 534.5C869.131 534.5 864.577 532.682 860.768 529.046C857.124 525.411 855.303 520.867 855.303 515.413C855.303 510.291 857.124 505.911 860.768 502.276C864.577 498.475 869.131 496.575 874.431 496.575C879.73 496.575 884.202 498.475 887.845 502.276C891.489 505.911 893.311 510.291 893.311 515.413C893.311 520.867 891.489 525.411 887.845 529.046C884.202 532.682 879.73 534.5 874.431 534.5ZM858.284 562.758C858.284 561.931 857.621 561.27 856.296 560.774C855.137 560.279 853.978 560.031 852.818 560.031V555.321H895.546V560.031C894.387 560.031 893.145 560.279 891.82 560.774C890.661 561.27 890.081 561.931 890.081 562.758V661.907C890.081 662.734 890.661 663.395 891.82 663.891C893.145 664.386 894.387 664.634 895.546 664.634V669.344H852.818V664.634C853.978 664.634 855.137 664.386 856.296 663.891C857.621 663.395 858.284 662.734 858.284 661.907V562.758ZM927.59 490.874C927.59 490.047 926.928 489.386 925.603 488.891C924.444 488.395 923.201 488.147 921.877 488.147V483.438H965.598V488.147C964.273 488.147 962.948 488.395 961.623 488.891C960.464 489.386 959.885 490.047 959.885 490.874V661.907C959.885 662.734 960.464 663.395 961.623 663.891C962.948 664.386 964.273 664.634 965.598 664.634V669.344H921.877V664.634C923.201 664.634 924.444 664.386 925.603 663.891C926.928 663.395 927.59 662.734 927.59 661.907V490.874ZM1114.79 661.907C1114.79 662.734 1115.37 663.395 1116.53 663.891C1117.86 664.386 1119.1 664.634 1120.26 664.634V669.344H1084.74V660.668C1074.8 668.765 1062.96 672.814 1049.21 672.814C1036.96 672.814 1026.03 670.335 1016.42 665.378C1006.81 660.42 999.28 653.397 993.814 644.308C988.349 635.22 985.617 624.726 985.617 612.828C985.617 600.765 988.349 590.106 993.814 580.852C999.445 571.433 1007.06 564.162 1016.67 559.039C1026.44 553.751 1037.29 551.107 1049.21 551.107C1062.96 551.107 1074.8 554.991 1084.74 562.758V490.874C1084.74 490.047 1084.16 489.386 1083 488.891C1081.84 488.395 1080.68 488.147 1079.52 488.147V483.438H1120.01V488.147C1118.85 488.147 1117.69 488.395 1116.53 488.891C1115.37 489.386 1114.79 490.047 1114.79 490.874V661.907ZM1050.7 646.291C1057.16 646.291 1063.04 644.804 1068.34 641.83C1073.8 638.855 1078.03 634.889 1081.01 629.932C1084.16 624.809 1085.73 619.438 1085.73 613.82C1085.73 603.74 1082.42 595.477 1075.79 589.032C1069.33 582.422 1060.97 579.117 1050.7 579.117C1040.43 579.117 1031.99 582.34 1025.36 588.784C1018.9 595.064 1015.68 603.244 1015.68 613.324C1015.68 623.404 1018.99 631.419 1025.61 637.368C1032.4 643.317 1040.77 646.291 1050.7 646.291ZM1201.98 550.116C1214.73 550.116 1225.74 552.925 1235.02 558.544C1244.29 563.997 1251.33 571.433 1256.13 580.852C1260.93 590.272 1263.34 600.682 1263.34 612.085C1263.34 615.555 1263.09 619.025 1262.59 622.495H1171.67C1172.33 630.427 1175.81 636.624 1182.1 641.086C1188.4 645.548 1195.93 647.779 1204.71 647.779C1210.67 647.779 1215.64 646.952 1219.61 645.3C1223.75 643.647 1227.4 641.169 1230.54 637.864C1230.88 637.203 1231.04 636.789 1231.04 636.624C1231.04 635.963 1230.79 635.302 1230.3 634.641C1229.8 633.815 1229.3 633.237 1228.81 632.906L1231.79 629.188L1259.36 650.753L1256.63 654.471C1254.14 652.984 1252.4 652.819 1251.41 653.976C1239.82 667.857 1224.25 674.797 1204.71 674.797C1192.12 674.797 1181.03 672.07 1171.42 666.617C1161.82 660.999 1154.36 653.562 1149.06 644.308C1143.93 634.889 1141.36 624.478 1141.36 613.076C1141.36 601.013 1143.93 590.189 1149.06 580.604C1154.2 571.02 1161.32 563.584 1170.43 558.296C1179.7 552.842 1190.22 550.116 1201.98 550.116ZM1233.53 599.443C1232.86 592.668 1229.38 586.967 1223.09 582.34C1216.96 577.547 1210.01 575.151 1202.22 575.151C1194.44 575.151 1187.73 577.547 1182.1 582.34C1176.47 586.967 1173.08 592.668 1171.92 599.443H1233.53ZM1358.64 547.885V587.793H1353.93C1353.93 586.636 1353.68 585.314 1353.18 583.827C1352.68 582.34 1352.02 581.513 1351.19 581.348H1349.45C1344.32 581.348 1339.1 582.835 1333.8 585.81C1328.67 588.619 1324.36 592.42 1320.89 597.212C1317.57 601.839 1315.92 606.797 1315.92 612.085V661.907C1315.92 662.734 1316.5 663.395 1317.66 663.891C1318.98 664.386 1320.22 664.634 1321.38 664.634V669.344H1279.65V664.634C1280.81 664.634 1281.97 664.386 1283.13 663.891C1284.45 663.395 1285.11 662.734 1285.11 661.907V562.758C1285.11 561.931 1284.45 561.27 1283.13 560.774C1281.97 560.279 1280.81 560.031 1279.65 560.031V555.321H1315.92V565.98C1320.39 561.849 1325.77 558.544 1332.06 556.065C1338.36 553.586 1344.65 552.347 1350.94 552.347H1351.19H1351.44C1352.27 552.347 1352.85 551.851 1353.18 550.859C1353.68 549.868 1353.93 548.876 1353.93 547.885H1358.64Z" fill="url(#paint0_linear_10_4)"/>
<defs>
<linearGradient id="paint0_linear_10_4" x1="711.59" y1="47.0948" x2="711.59" y2="674.797" gradientUnits="userSpaceOnUse">
<stop stop-color="#5B7E9E"/>
<stop offset="1" stop-color="#6A6F88"/>
</linearGradient>
</defs>
</svg>
