<svg width="24" height="24" viewBox="0 0 24 24" fill="none" xmlns="http://www.w3.org/2000/svg">
<path d="M10.625 17.375H13.375V11H10.625V17.375ZM12 9.5C12.425 9.5 12.7813 9.35625 13.0688 9.06875C13.3563 8.78125 13.5 8.425 13.5 8C13.5 7.575 13.3563 7.21875 13.0688 6.93125C12.7813 6.64375 12.425 6.5 12 6.5C11.575 6.5 11.2188 6.64375 10.9313 6.93125C10.6438 7.21875 10.5 7.575 10.5 8C10.5 8.425 10.6438 8.78125 10.9313 9.06875C11.2188 9.35625 11.575 9.5 12 9.5ZM12 22.85C10.4833 22.85 9.06678 22.566 7.75033 21.9979C6.43386 21.4299 5.28872 20.6589 4.3149 19.6851C3.34108 18.7113 2.57015 17.5661 2.0021 16.2497C1.43403 14.9332 1.15 13.5167 1.15 12C1.15 10.4833 1.43403 9.06678 2.0021 7.75033C2.57015 6.43386 3.34108 5.28872 4.3149 4.3149C5.28872 3.34109 6.43386 2.57015 7.75033 2.0021C9.06678 1.43403 10.4833 1.15 12 1.15C13.5167 1.15 14.9332 1.43403 16.2497 2.0021C17.5661 2.57015 18.7113 3.34109 19.6851 4.3149C20.6589 5.28872 21.4299 6.43386 21.9979 7.75033C22.566 9.06678 22.85 10.4833 22.85 12C22.85 13.5167 22.566 14.9332 21.9979 16.2497C21.4299 17.5661 20.6589 18.7113 19.6851 19.6851C18.7113 20.6589 17.5661 21.4299 16.2497 21.9979C14.9332 22.566 13.5167 22.85 12 22.85Z" fill="white"/>
</svg>
