<svg width="24" height="24" viewBox="0 0 24 24" fill="none" xmlns="http://www.w3.org/2000/svg">
<path d="M11 21.825C8.76666 21.5417 6.89999 20.575 5.39999 18.925C3.89999 17.275 3.14999 15.3167 3.14999 13.05C3.14999 11.9 3.36666 10.7958 3.79999 9.7375C4.23333 8.67917 4.84999 7.725 5.64999 6.875L7.89999 9.1C7.38333 9.63333 6.98749 10.2375 6.71249 10.9125C6.43749 11.5875 6.29999 12.3 6.29999 13.05C6.29999 14.45 6.74166 15.675 7.62499 16.725C8.50833 17.775 9.63333 18.4167 11 18.65V21.825ZM13 21.825V18.65C14.3667 18.4167 15.4917 17.7708 16.375 16.7125C17.2583 15.6542 17.7 14.4333 17.7 13.05C17.7 11.5667 17.2042 10.2833 16.2125 9.2C15.2208 8.11667 13.9917 7.50833 12.525 7.375H12.35L13.6 8.625L11.925 10.3L7.24999 5.625L11.925 0.924999L13.6 2.6L12 4.2H12.2C14.6167 4.2 16.6625 5.06667 18.3375 6.8C20.0125 8.53333 20.85 10.6167 20.85 13.05C20.85 15.3 20.1 17.2542 18.6 18.9125C17.1 20.5708 15.2333 21.5417 13 21.825Z" fill="white"/>
</svg>
